<?xml version="1.0" encoding="utf-8"?>
<!-- Generator: Adobe Illustrator 13.0.0, SVG Export Plug-In . SVG Version: 6.00 Build 14948)  -->
<!DOCTYPE svg PUBLIC "-//W3C//DTD SVG 1.1//EN" "http://www.w3.org/Graphics/SVG/1.1/DTD/svg11.dtd">
<svg version="1.1" id="Layer_1" xmlns="http://www.w3.org/2000/svg" xmlns:xlink="http://www.w3.org/1999/xlink" x="0px" y="0px"
	 width="141.732px" height="133.943px" viewBox="0 0 141.732 133.943" enable-background="new 0 0 141.732 133.943"
	 xml:space="preserve">
<path fill="none" stroke="#FF0000" d="M40.819,31.252c-0.937-0.815-4.096-3.207-5.615-4.897c-1.52-1.692-2.666-3.906-3.501-5.251
	c-0.835-1.346-1.367-1.912-1.513-2.819c-0.146-0.907-0.761-1.9,0.638-2.626c1.4-0.726,5.581-1.177,7.759-1.731
	c2.18-0.554,3.385-0.903,5.315-1.595c1.932-0.69,4.323-1.646,6.271-2.551c1.949-0.903,4.519-2.392,5.422-2.87"/>
<path fill="none" stroke="#FF0000" d="M55.595,6.909c0.318-0.833,1.372-3.779,1.912-4.996s1.105-1.919,1.327-2.303"/>
<path fill="none" stroke="#FF0000" d="M55.595,6.909c1.062-0.195,4.07-0.86,6.378-1.169c2.306-0.309,4.629-0.715,7.462-0.684
	c2.832,0.031,7.002,0.404,9.528,0.875c2.529,0.47,4.134,1.409,5.642,1.944c1.509,0.535,2.843,1.055,3.411,1.266"/>
<path fill="none" stroke="#FF0000" d="M88.016,9.142c0.035-0.674,0.182-2.37,0.213-4.039c0.03-1.67-0.021-4.981-0.025-5.979"/>
<path fill="none" stroke="#FF0000" d="M88.016,9.142c1.188,1.293,4.306,5.651,7.122,7.76c2.815,2.107,7.19,3.671,9.778,4.89
	c2.589,1.219,4.711,1.549,5.75,2.423s1.215,1.329,0.486,2.82c-0.729,1.491-2.397,4.471-4.854,6.131s-7.374,3.054-9.887,3.827
	c-2.512,0.772-4.325,0.671-5.188,0.806"/>
<path fill="none" stroke="#FF0000" d="M38.586,13.925c0.336-0.053,0.284-0.318,2.021-0.318c1.735,0,5.132-0.25,8.396,0.318
	c3.266,0.568,7.721,2.295,11.192,3.094c3.473,0.797,6.104,1.639,9.643,1.689c3.539,0.052,8.057-0.808,11.586-1.382
	c3.531-0.573,7.644-1.716,9.599-2.059c1.957-0.344,1.455-0.272,2.141,0c0.687,0.271,1.646,1.361,1.976,1.634"/>
<path fill="none" stroke="#FF0000" d="M49.004,13.925c-0.809,0.742-3.525,2.399-4.854,4.455s-2.558,5.731-3.112,7.877
	s-0.146,3.542-0.219,4.995s-0.006,2.154-0.212,3.722c-0.207,1.565-0.46,3.852-1.027,5.676c-0.566,1.824-1.979,4.394-2.375,5.271"/>
<path fill="none" stroke="#FF0000" d="M37.205,45.921c0.514-0.461,2.179-1.967,3.083-2.764c0.903-0.797,1.949-1.683,2.338-2.02"/>
<path fill="none" stroke="#FF0000" d="M43.677,33.652c-0.153,0.665-0.745,2.742-0.921,3.989c-0.175,1.247-0.179,2.506-0.13,3.496
	c0.049,0.989,0.23,1.683,0.425,2.444c0.195,0.762,0.62,1.772,0.744,2.126"/>
<path fill="none" stroke="#FF0000" d="M43.795,45.708c0.479-0.124,2.393-0.62,2.87-0.744"/>
<path fill="none" stroke="#FF0000" d="M46.666,44.964c-0.089-1.101-0.428-4.636-0.534-6.606c-0.105-1.972-0.209-3.253-0.103-5.216
	c0.107-1.965,0.619-5.473,0.743-6.566"/>
<path fill="none" stroke="#FF0000" d="M46.771,26.575c0.125,1.63,0.39,7.158,0.744,9.78c0.354,2.622,1.066,4.697,1.382,5.953
	c0.314,1.254,0.422,1.312,0.507,1.573"/>
<path fill="none" stroke="#FF0000" d="M49.404,43.778c0.5-0.156,2.501-0.783,3.001-0.94"/>
<path fill="none" stroke="#FF0000" d="M52.371,42.96c-0.204-1.057-0.92-4.16-1.228-6.342s-0.559-4.935-0.614-6.751
	c-0.055-1.815,0.235-3.453,0.282-4.143"/>
<path fill="none" stroke="#FF0000" d="M50.811,25.725c0.159,1.559,0.509,6.821,0.957,9.354c0.447,2.532,1.338,4.557,1.729,5.836
	c0.391,1.28,0.511,1.534,0.614,1.841"/>
<path fill="none" stroke="#FF0000" d="M54.11,42.756c0.375-0.103,1.875-0.511,2.25-0.613"/>
<path fill="none" stroke="#FF0000" d="M56.36,42.142c-0.074-0.947-0.208-3.603-0.446-5.683c-0.239-2.08-0.72-4.725-0.984-6.797
	c-0.266-2.072-0.509-4.7-0.609-5.64"/>
<path fill="none" stroke="#FF0000" d="M54.319,24.023c0.319,1.471,1.369,5.837,1.914,8.823c0.545,2.984,1.129,7.575,1.354,9.091"/>
<path fill="none" stroke="#FF0000" d="M57.689,41.938c0.324-0.068,1.62-0.341,1.942-0.409"/>
<path fill="none" stroke="#FF0000" d="M59.633,41.528c-0.102-1.312-0.383-4.977-0.612-7.876c-0.23-2.9-0.641-7.937-0.769-9.522"/>
<path fill="none" stroke="#FF0000" d="M58.252,24.13c0.247,1.52,1.083,6.128,1.483,9.113c0.399,2.985,0.768,7.331,0.921,8.797"/>
<path fill="none" stroke="#FF0000" d="M60.656,42.04c0.153-1.381,0.86-5.212,0.92-8.285c0.061-3.073-0.467-8.464-0.561-10.155"/>
<path fill="none" stroke="#FF0000" d="M61.016,23.599c0.314,1.657,1.354,7.439,1.891,9.95c0.537,2.512,0.989,3.888,1.33,5.114
	c0.341,1.229,0.597,1.875,0.716,2.25"/>
<path fill="none" stroke="#FF0000" d="M64.952,40.915c0.597-0.085,2.983-0.426,3.58-0.511"/>
<path fill="none" stroke="#FF0000" d="M68.532,40.403c-0.137-1.262-0.363-4.609-0.818-7.569s-1.596-8.494-1.915-10.191"/>
<path fill="none" stroke="#FF0000" d="M65.799,22.642c0.55,1.719,2.517,7.353,3.295,10.311c0.779,2.959,1.151,6.201,1.383,7.441"/>
<path fill="none" stroke="#FF0000" d="M70.477,40.394c-0.071-1.472-0.178-5.882-0.426-8.823c-0.247-2.941-0.886-7.353-1.062-8.823"
	/>
<path fill="none" stroke="#FF0000" d="M68.988,22.748c0.35,1.8,1.569,7.967,2.101,10.802s0.906,5.173,1.087,6.206"/>
<path fill="none" stroke="#FF0000" d="M72.177,39.756c-0.069-1.665-0.247-7.14-0.425-9.991c-0.177-2.853-0.53-5.936-0.638-7.122"/>
<path fill="none" stroke="#FF0000" d="M71.114,22.642c0.336,1.967,1.648,8.906,2.02,11.799c0.372,2.892,0.173,4.627,0.206,5.553"/>
<path fill="none" stroke="#FF0000" d="M73.34,39.892c0.357-0.052,1.79-0.257,2.147-0.308"/>
<path fill="none" stroke="#FF0000" d="M75.487,39.688c-0.037-1.3-0.083-5.188-0.229-7.798c-0.144-2.61-0.53-6.556-0.638-7.866"/>
<path fill="none" stroke="#FF0000" d="M74.622,24.023c0.23,1.949,1.135,9.064,1.382,11.692c0.247,2.627,0.081,3.395,0.098,4.073"/>
<path fill="none" stroke="#FF0000" d="M76.101,39.688c0.223,0,1.108,0,1.33,0"/>
<path fill="none" stroke="#FF0000" d="M77.431,39.688c0.118-1.279,0.563-4.99,0.717-7.672c0.15-2.683,0.162-7.015,0.194-8.417"/>
<path fill="none" stroke="#FF0000" d="M78.343,23.599c0.105,1.293,0.603,5.102,0.639,7.76c0.035,2.657-0.354,6.821-0.425,8.185"/>
<path fill="none" stroke="#FF0000" d="M78.556,39.543c0.477,0.007,2.387,0.035,2.863,0.042"/>
<path fill="none" stroke="#FF0000" d="M81.42,39.585c0.02-1.017,0.075-4.039,0.111-6.101c0.036-2.062,0.177-4.5,0.106-6.272
	c-0.07-1.771-0.443-3.632-0.531-4.357"/>
<path fill="none" stroke="#FF0000" d="M81.106,22.854c0.24,1.254,1.12,4.653,1.438,7.523c0.318,2.871,0.396,8.08,0.475,9.696"/>
<path fill="none" stroke="#FF0000" d="M83.02,40.075c0.193-0.678,0.899-2.624,1.162-4.07c0.263-1.445,0.341-3.835,0.408-4.603"/>
<path fill="none" stroke="#FF0000" d="M84.591,31.402c0.138,1.432,0.683,7.16,0.818,8.592"/>
<path fill="none" stroke="#FF0000" d="M85.409,39.994c0.086-1.96,0.573-8.765,0.512-11.763c-0.062-2.999-0.733-5.189-0.881-6.228"/>
<path fill="none" stroke="#FF0000" d="M85.04,22.004c0.352,1.566,1.541,6.422,2.108,9.398c0.566,2.977,1.077,7.05,1.292,8.46"/>
<path fill="none" stroke="#FF0000" d="M88.44,39.862c0-1.63,0.071-6.893,0-9.78c-0.07-2.888-0.354-6.289-0.425-7.547"/>
<path fill="none" stroke="#FF0000" d="M88.44,30.083c0.16,0.868,0.713,3.674,0.958,5.206c0.245,1.533,0.427,3.325,0.511,3.989"/>
<path fill="none" stroke="#FF0000" d="M89.909,39.482c0.239-0.034,1.193-0.17,1.433-0.205"/>
<path fill="none" stroke="#FF0000" d="M91.342,39.278c-0.129-1.144-0.646-5.713-0.773-6.856"/>
<path fill="none" stroke="#FF0000" d="M89.504,22.854c0.085,1.083,0.331,4.906,0.51,6.501c0.177,1.595,0.145,1.923,0.555,3.064
	c0.408,1.143,0.854,2.424,1.898,3.788c1.047,1.364,3.645,3.664,4.372,4.397"/>
<path fill="none" stroke="#FF0000" d="M96.839,40.606c-0.473-1.125-2.108-4.637-2.838-6.75c-0.729-2.113-1.158-4.144-1.534-5.934
	c-0.375-1.79-0.375-3.018-0.716-4.808c-0.34-1.79-0.972-4.654-1.33-5.933c-0.356-1.278-0.682-1.449-0.817-1.739"/>
<path fill="none" stroke="#FF0000" d="M85.358,37.523c-0.009,0.497,0.008,2.229-0.051,2.981c-0.062,0.752-0.257,1.279-0.309,1.535"
	/>
<path fill="none" stroke="#FF0000" d="M85.103,41.938c0.928-0.223,4.643-1.109,5.569-1.331"/>
<path fill="none" stroke="#FF0000" d="M90.673,40.606c0.011-0.188,0.048-0.938,0.056-1.124"/>
<path fill="none" stroke="#FF0000" d="M85.89,41.988c-0.08,1.969-0.265,8.414-0.48,11.813c-0.216,3.4-0.494,6.086-0.818,8.592
	c-0.323,2.507-0.721,4.813-1.125,6.444c-0.403,1.629-1.079,2.781-1.297,3.338c-0.216,0.558,0,0,0,0"/>
<path fill="none" stroke="#FF0000" d="M82.169,72.177c0.541-0.743,2.479-2.969,3.24-4.463c0.761-1.493,0.938-2.848,1.33-4.502
	c0.392-1.651,0.682-3.323,1.023-5.42c0.34-2.097,0.697-4.312,1.021-7.161c0.324-2.847,0.768-8.268,0.922-9.922"/>
<path fill="none" stroke="#FF0000" d="M45.006,45.415c0.342,1.108,1.143,4.229,2.045,6.649c0.903,2.421,2.114,5.506,3.375,7.876
	c1.262,2.37,2.763,4.501,4.194,6.342s3.665,3.921,4.398,4.705"/>
<path fill="none" stroke="#FF0000" d="M59.02,71.191c-0.783-1.359-3.439-5.751-4.701-8.156c-1.262-2.404-2.037-4.145-2.87-6.271
	s-1.577-4.643-2.126-6.484s-0.975-3.809-1.169-4.571"/>
<path fill="none" stroke="#FF0000" d="M45.62,45.21c0.121,0.208,0.605,1.036,0.728,1.242"/>
<path fill="none" stroke="#FF0000" d="M46.347,46.453c0.301-0.124,1.239-0.531,1.807-0.744c0.567-0.212,1.062-0.39,1.595-0.531
	c0.531-0.142,1.329-0.266,1.595-0.318"/>
<path fill="none" stroke="#FF0000" d="M51.343,44.858c-0.118-0.248-0.592-1.241-0.711-1.489"/>
<path fill="none" stroke="#FF0000" d="M43.472,44.699c0.125,0.93,0.186,3.347,0.749,5.58c0.562,2.233,1.797,5.477,2.626,7.82
	c0.829,2.343,1.722,4.518,2.353,6.238c0.631,1.723,0.969,2.645,1.432,4.092c0.464,1.448,1.124,3.831,1.35,4.598"/>
<path fill="none" stroke="#FF0000" d="M51.98,73.027c-0.072-0.612-0.271-2.501-0.429-3.676c-0.156-1.177-0.272-1.979-0.512-3.376
	c-0.239-1.397-0.614-3.581-0.92-5.014c-0.306-1.432-0.768-2.981-0.921-3.58"/>
<path fill="none" stroke="#FF0000" d="M87.864,57.792c-0.034,1.228-0.205,5.455-0.205,7.364s0.068,3.017,0.205,4.091
	s0.512,1.961,0.613,2.354"/>
<path fill="none" stroke="#FF0000" d="M88.478,71.601c-0.308-0.58-1.449-2.404-1.841-3.479c-0.394-1.074-0.428-2.472-0.512-2.966"/>
<path fill="none" stroke="#FF0000" d="M51.98,51.662c-0.174-0.461-0.938-1.949-1.042-2.769c-0.105-0.819,0.129-1.44,0.409-2.148
	c0.279-0.708,0.623-1.417,1.271-2.1s1.607-1.549,2.617-1.992s2.504-0.733,3.441-0.665c0.938,0.068,1.652,0.737,2.184,1.075
	c0.531,0.337,0.834,0.789,1.001,0.945"/>
<path fill="none" stroke="#FF0000" d="M61.921,43.95c-0.415-0.199-1.65-1.029-2.491-1.194c-0.843-0.165-1.723,0-2.558,0.205
	s-1.834,0.583-2.455,1.023c-0.621,0.439-1.003,1.083-1.267,1.619c-0.264,0.535-0.274,1.028-0.319,1.594s-0.037,1.09,0.052,1.799
	c0.09,0.708,0.4,2.044,0.48,2.453"/>
<path fill="none" stroke="#FF0000" d="M53.362,51.449c-0.23,0.036-1.151,0.177-1.382,0.213"/>
<path fill="none" stroke="#FF0000" d="M57.614,42.838c-0.226,0.226-1.056,0.694-1.357,1.351c-0.301,0.655-0.449,1.611-0.449,2.583
	c0,0.971,0.237,2.502,0.449,3.247c0.214,0.744,0.399,0.825,0.825,1.218c0.426,0.392,1.171,0.962,1.732,1.134
	s1.192,0.034,1.636-0.102c0.443-0.137,0.854-0.598,1.023-0.717s-0.035,0.238,0,0c0.033-0.238,0.187-0.768,0.203-1.432
	c0.018-0.665-0.072-1.854-0.102-2.557s0.01-0.976-0.071-1.656c-0.081-0.682-0.346-2.026-0.415-2.432"/>
<path fill="none" stroke="#FF0000" d="M72.603,42.307c0.207-0.261,0.757-1.191,1.239-1.561c0.483-0.369,1.059-0.534,1.66-0.652
	c0.604-0.118,1.117-0.129,1.957-0.06c0.841,0.069,2.195,0.079,3.085,0.475c0.891,0.396,1.771,1.208,2.254,1.898
	c0.483,0.69,0.616,1.497,0.646,2.238c0.03,0.74-0.096,1.644-0.468,2.21c-0.372,0.565-1.471,0.993-1.766,1.19"/>
<path fill="none" stroke="#FF0000" d="M81.212,48.047c0.087-0.484,0.562-1.971,0.521-2.911c-0.043-0.939-0.386-2.086-0.771-2.729
	c-0.385-0.643-0.948-0.87-1.542-1.127c-0.593-0.257-1.402-0.346-2.017-0.415c-0.613-0.069-1.146-0.079-1.66,0
	c-0.515,0.079-0.9,0.234-1.424,0.475s-1.43,0.807-1.715,0.968"/>
<path fill="none" stroke="#FF0000" d="M73.368,41.814c0.021,0.425,0.049,1.513,0.119,2.551c0.068,1.038,0.068,2.698,0.297,3.677
	c0.227,0.979,0.622,1.79,1.066,2.195s1.028,0.306,1.602,0.237c0.573-0.069,1.396-0.158,1.839-0.652
	c0.445-0.494,0.673-1.562,0.831-2.313s0.138-1.403,0.117-2.193c-0.021-0.791-0.088-1.928-0.236-2.55
	c-0.147-0.623-0.415-0.86-0.651-1.187c-0.237-0.326-0.644-0.643-0.771-0.771"/>
<path fill="none" stroke="#FF0000" d="M67.5,51.236c0.036,0.177,0.177,0.886,0.212,1.062"/>
<path fill="none" stroke="#FF0000" d="M67.469,60.701c0.148-0.072,0.554-0.378,0.889-0.438s0.83-0.018,1.122,0.079
	c0.292,0.098,0.699,0.246,0.605,0.379c-0.093,0.135-0.861,0.309-1.219,0.344c-0.355,0.036-0.709-0.025-0.95-0.087
	c-0.241-0.062-0.365-0.158-0.448-0.206s0,0,0,0"/>
<path fill="none" stroke="#FF0000" d="M48.814,42.158c0.291-0.489,1.096-2.153,1.743-2.932c0.646-0.779,1.32-1.321,2.14-1.743
	c0.819-0.423,1.783-0.793,2.774-0.793c0.99,0,2.482,0.423,3.169,0.793s0.792,1.188,0.95,1.426"/>
<path fill="none" stroke="#FF0000" d="M59.512,38.988c-0.353-0.103-1.292-0.482-2.111-0.614s-1.864-0.391-2.802-0.179
	c-0.939,0.213-1.882,0.769-2.832,1.454s-2.393,2.215-2.87,2.658"/>
<path fill="none" stroke="#FF0000" d="M73.134,36.992c0.146-0.262,0.378-1.176,0.881-1.57c0.503-0.394,1.259-0.646,2.14-0.792
	c0.881-0.146,2.261-0.214,3.146-0.082c0.886,0.133,1.525,0.479,2.162,0.875c0.64,0.397,1.353,0.979,1.664,1.507
	c0.313,0.526,0.179,1.382,0.213,1.658"/>
<path fill="none" stroke="#FF0000" d="M83.339,38.586c-0.181-0.21-0.479-0.894-1.084-1.263c-0.604-0.369-1.742-0.74-2.534-0.951
	c-0.794-0.211-1.453-0.291-2.22-0.316c-0.767-0.026-1.649,0.003-2.378,0.158c-0.728,0.156-1.657,0.648-1.989,0.778"/>
<path fill="none" stroke="#FF0000" d="M61.651,33.758c0.093,0.779,0.356,3.382,0.555,4.676s0.529,2.575,0.634,3.09"/>
<path fill="none" stroke="#FF0000" d="M62.84,41.682c0.133-0.291,0.595-1.083,0.792-1.744c0.198-0.66,0.33-1.85,0.396-2.219"/>
<path fill="none" stroke="#FF0000" d="M52.65,59.703c0.601,0.454,2.404,1.963,3.605,2.725c1.202,0.763,2.298,1.281,3.606,1.844
	c1.309,0.562,2.849,1.06,4.247,1.521c1.396,0.463,3.027,1.068,4.141,1.256s1.225,0.334,2.538-0.134
	c1.312-0.468,3.944-1.883,5.342-2.671c1.398-0.788,2.134-1.345,3.046-2.057c0.912-0.713,1.825-1.625,2.432-2.218
	c0.604-0.593,0.779-0.778,1.202-1.336c0.423-0.557,0.913-1.18,1.335-2.004c0.424-0.823,1.002-2.448,1.203-2.938"/>
<path fill="none" stroke="#FF0000" d="M56.02,44.752c0.122,0.446,0.395,2.218,0.729,2.678c0.334,0.458,1.027,0.324,1.278,0.074
	s0.238-0.989,0.226-1.579c-0.013-0.589-0.05-1.553-0.301-1.953c-0.251-0.401-1.002-0.376-1.203-0.451"/>
<path fill="none" stroke="#FF0000" d="M73.436,43.745c0.111,0.251,0.4,1.266,0.677,1.504c0.275,0.238,0.727,0.125,0.977-0.075
	s0.464-0.701,0.526-1.128c0.062-0.426-0.056-1.014-0.15-1.428s-0.191-0.867-0.417-1.055c-0.227-0.188-0.779-0.062-0.936-0.072"/>
<path fill="none" stroke="#FF0000" d="M75.17,64.699c-0.003,0.414-0.12,1.537-0.017,2.482c0.103,0.944,0.195,2.354,0.639,3.188
	c0.442,0.832,1.683,1.506,2.021,1.807"/>
<path fill="none" stroke="#FF0000" d="M65.162,66.119c0.106,0.627,0.515,2.767,0.64,3.761s0.312,1.579,0.11,2.204
	s-1.102,1.286-1.323,1.543"/>
<path fill="none" stroke="#FF0000" d="M59.953,73.984c0.567-0.088,2.61-0.527,3.402-0.531c0.791-0.004,1.221-0.133,1.345,0.505
	c0.124,0.639-0.546,1.944-0.601,3.321c-0.056,1.379-0.067,3.617,0.27,4.945c0.336,1.327,1.458,2.522,1.75,3.026"/>
<path fill="none" stroke="#FF0000" d="M66.118,85.251c-0.797,0.071-3.614,0.531-4.784,0.426c-1.169-0.105-1.859-0.886-2.231-1.062"
	/>
<path fill="none" stroke="#FF0000" d="M66.118,85.251c0.975-0.708,4.246-2.663,5.846-4.252c1.603-1.588,2.783-3.809,3.759-5.277
	c0.974-1.472,1.061-2.884,2.09-3.545c1.027-0.661,2.541-0.44,4.082-0.424c1.541,0.018,3.561,0.123,5.166,0.529
	c1.604,0.408,3.756,1.082,4.464,1.914c0.709,0.833-0.177,2.568-0.212,3.082"/>
<path fill="none" stroke="#FF0000" d="M91.523,74.197c-0.265,0.181,0.168-0.365-1.584,1.084c-1.752,1.447-6.19,5.768-8.928,7.604
	c-2.738,1.837-5.014,3.022-7.495,3.417c-2.482,0.396-6.166-0.875-7.398-1.051"/>
<path fill="none" stroke="#FF0000" d="M89.388,75.721c0.657,0.597,2.933,2.347,3.942,3.577c1.01,1.231,1.803,2.749,2.119,3.808
	c0.316,1.058-0.092,1.562-0.221,2.534c-0.129,0.975-0.386,2.039-0.551,3.307c-0.166,1.269-0.312,2.701-0.44,4.299
	c-0.129,1.599-0.294,3.803-0.331,5.291s0.082,2.646,0.11,3.637c0.027,0.993,0.048,1.934,0.058,2.318"/>
<path fill="none" stroke="#FF0000" d="M94.075,104.492c-0.531,0.408-1.825,1.808-3.189,2.445c-1.363,0.637-3.404,1.146-4.995,1.382
	c-1.591,0.235-3.185,0.316-4.548,0.027c-1.363-0.29-2.605-0.979-3.638-1.765c-1.032-0.784-2.126-2.45-2.552-2.939"/>
<path fill="none" stroke="#FF0000" d="M75.153,103.642c0.408-0.691,1.671-2.523,2.445-4.146c0.773-1.621,1.562-3.923,2.2-5.588
	c0.638-1.666,1.354-3.67,1.625-4.404"/>
<path fill="none" stroke="#FF0000" d="M54.141,77.814c0.389-0.283,1.638-1.275,2.335-1.699c0.696-0.422,1.154-0.752,1.846-0.836
	s1.64,0.312,2.299,0.332c0.658,0.019,1.103-0.109,1.653-0.221c0.551-0.109,1.451-0.258,1.652-0.441
	c0.202-0.184,0.183-0.482-0.44-0.66s-2.304-0.192-3.295-0.401c-0.992-0.21-1.876-0.851-2.654-0.851s-1.186,0.407-2.017,0.851
	c-0.832,0.44-2.018,1.097-2.974,1.805c-0.955,0.707-1.84,1.079-2.76,2.44c-0.92,1.362-1.663,3.806-2.76,5.732
	c-1.097,1.929-2.406,3.893-3.822,5.839s-3.228,3.993-4.671,5.839s-2.543,3.295-3.988,5.229c-1.443,1.936-3.778,4.562-4.677,6.379
	c-0.897,1.813-0.63,2.97-0.712,4.514c-0.082,1.543-0.128,3.818,0.221,4.749c0.35,0.931,0.977,1.122,1.873,0.835
	c0.897-0.285,2.269-1.576,3.508-2.551c1.24-0.975,2.641-1.824,3.934-3.295s2.762-3.771,3.827-5.527
	c1.063-1.759,1.675-3.356,2.561-5.022c0.886-1.665,1.87-3.255,2.754-4.97c0.885-1.715,1.736-3.881,2.551-5.314
	c0.815-1.435,1.647-2.517,2.34-3.296c0.69-0.779,0.738-0.867,1.807-1.381c1.068-0.517,3.656-1.192,4.599-1.707
	c0.943-0.515,0.813-0.851,1.062-1.38c0.248-0.53,0.212-1.239,0.424-1.806c0.212-0.565,0.743-1.148,0.85-1.593
	c0.106-0.441-0.282-0.707-0.212-1.061c0.071-0.354,0.531-0.886,0.638-1.062c0.105-0.177,0.146,0.195,0,0
	c-0.146-0.195-0.114-1.014-0.875-1.172c-0.762-0.16-2.544-0.067-3.69,0.217C56.18,76.612,54.671,77.566,54.141,77.814"/>
<path fill="none" stroke="#FF0000" d="M54.777,79.194c0.372-0.159,1.397-0.743,2.229-0.956c0.832-0.211,2.726-0.441,2.761-0.318
	c0.035,0.124-2.123,0.886-2.549,1.062"/>
<path fill="none" stroke="#FF0000" d="M54.884,80.574c0.267-0.07,0.902-0.229,1.593-0.424c0.689-0.195,2.459-0.814,2.548-0.744
	c0.088,0.071-1.682,0.974-2.018,1.168"/>
<path fill="none" stroke="#FF0000" d="M66.331,76.216c-0.194,0-0.862,0.056-1.169,0c-0.307-0.054-0.561-0.27-0.673-0.321"/>
<path fill="none" stroke="#FF0000" d="M71.646,76.323c0.301,0,1.116,0.089,1.807,0c0.691-0.089,1.948-0.444,2.338-0.532"/>
<path fill="none" stroke="#FF0000" d="M47.834,95.882c0.425,0.903,1.967,4.43,2.551,5.421c0.584,0.992,0.284,0.922,0.957,0.531
	c0.674-0.39,2.392-2.214,3.083-2.87c0.691-0.654,0.887-0.886,1.063-1.062"/>
<path fill="none" stroke="#FF0000" d="M49.642,100.027c-0.655,0.815-2.356,3.154-3.934,4.891c-1.577,1.737-4.357,4.447-5.526,5.527
	c-1.169,1.081-1.24,0.797-1.488,0.957"/>
<path fill="none" stroke="#FF0000" d="M57.721,89.823c-0.373,1.347-1.844,5.759-2.232,8.079s-0.081,3.626-0.106,5.846
	c-0.024,2.221,0.017,5.18-0.047,7.476c-0.062,2.295-0.108,3.942-0.331,6.295c-0.223,2.351-0.836,6.508-1.003,7.81"/>
<path fill="none" stroke="#FF0000" d="M54,125.327c1.253,0.778,4.951,3.661,7.521,4.671c2.568,1.01,6.07,1.204,7.894,1.39
	c1.822,0.184,2.534-0.236,3.041-0.283"/>
<path fill="none" stroke="#FF0000" d="M79.302,107.246c-0.403,1.49-1.675,5.706-2.43,8.945c-0.754,3.24-1.491,7.143-2.099,10.493
	c-0.608,3.35-1.288,8.008-1.546,9.607"/>
<path fill="none" stroke="#FF0000" d="M86.923,108.019c-0.424,1.896-1.896,8.172-2.54,11.375s-1.013,5.432-1.324,7.842
	c-0.313,2.412-0.442,5.118-0.554,6.627c-0.109,1.51-0.092,2.025-0.109,2.43"/>
<path fill="none" stroke="#FF0000" d="M89.685,107.025c-0.103,2.199-0.697,9.904-0.605,13.199s0.504,4.832,1.157,6.569
	c0.653,1.74,0.987,2.357,2.761,3.865c1.774,1.51,6.567,4.326,7.881,5.191"/>
<path fill="none" stroke="#FF0000" d="M54.562,125.58c-0.02,0.441,0.037,1.418-0.11,2.65c-0.146,1.233-0.312,3.313-0.772,4.75
	c-0.461,1.436-1.657,3.221-1.988,3.864"/>
<path fill="none" stroke="#FF0000" d="M87.033,121.603c0.056,1.418,0.019,6.074,0.331,8.506c0.312,2.43,1.289,5.062,1.547,6.074"/>
<path fill="none" stroke="#FF0000" d="M87.696,123.26c0.221,1.18,0.81,5.21,1.325,7.069c0.515,1.859,1.179,3.129,1.767,4.086
	c0.59,0.957,1.473,1.381,1.769,1.656"/>
<path fill="none" stroke="#FF0000" d="M58.996,107.363c0.955,0.127,4.036,0.62,5.728,0.766c1.689,0.146,3.682,0.094,4.418,0.111"/>
<path fill="none" stroke="#FF0000" d="M66.49,109.896c0.736-0.146,3.47-0.586,4.417-0.883c0.948-0.3,1.058-0.757,1.269-0.906"/>
</svg>
